<?xml version="1.0" encoding="utf-8"?>
<!-- Generator: Adobe Illustrator 25.3.1, SVG Export Plug-In . SVG Version: 6.00 Build 0)  -->
<svg version="1.1" id="Layer_1" xmlns="http://www.w3.org/2000/svg" xmlns:xlink="http://www.w3.org/1999/xlink" x="0px" y="0px"
	 viewBox="0 0 111.6 111.6" style="enable-background:new 0 0 111.6 111.6;" xml:space="preserve">
<style type="text/css">
	.st0{fill:#2DABE3;}
</style>
<g>
	<path class="st0" d="M71.9,24.1c-1.7-1.5-4.3-1.4-5.9,0.3L27.9,66.5l-18-14.8c-1.4-1.2-3.5-1.3-5-0.2c-1.9,1.3-2.3,3.9-1,5.8
		L22.5,84c0.5,0.7,1.2,1.4,1.9,1.9c3.5,2.4,8.3,1.5,10.7-2l0.3-0.4l37.1-54C73.7,27.9,73.5,25.5,71.9,24.1z"/>
	<g>
		<path class="st0" d="M107.5,24.1c-1.7-1.5-4.3-1.4-5.9,0.3L63.4,66.5l-6.3-5.2l-7.4,10.8L58.1,84c0.5,0.7,1.2,1.4,1.9,1.9
			c3.5,2.4,8.3,1.5,10.7-2l0.3-0.4l37.1-54C109.3,27.9,109,25.5,107.5,24.1z"/>
	</g>
</g>
</svg>
