<?xml version="1.0" encoding="utf-8"?>
<!-- Generator: Adobe Illustrator 25.3.1, SVG Export Plug-In . SVG Version: 6.00 Build 0)  -->
<svg version="1.1" id="Layer_1" xmlns="http://www.w3.org/2000/svg" xmlns:xlink="http://www.w3.org/1999/xlink" x="0px" y="0px"
	 viewBox="0 0 111.6 111.6" style="enable-background:new 0 0 111.6 111.6;" xml:space="preserve">
<style type="text/css">
	.st0{fill:#B4B4B4;}
</style>
<g>
	<path class="st0" d="M71.8,24.7c-1.7-1.5-4.3-1.4-5.9,0.3L27.7,67.1l-18-14.8c-1.4-1.2-3.5-1.3-5-0.2c-1.9,1.3-2.3,3.9-1,5.8
		l18.7,26.6c0.5,0.7,1.2,1.4,1.9,1.9c3.5,2.4,8.3,1.5,10.7-2l0.3-0.4l37.1-54C73.5,28.5,73.3,26.1,71.8,24.7z"/>
	<g>
		<path class="st0" d="M107.3,24.7c-1.7-1.5-4.3-1.4-5.9,0.3L63.3,67.1L57,62l-7.4,10.8l8.3,11.9c0.5,0.7,1.2,1.4,1.9,1.9
			c3.5,2.4,8.3,1.5,10.7-2l0.3-0.4l37.1-54C109.1,28.5,108.9,26.1,107.3,24.7z"/>
	</g>
</g>
</svg>
