<?xml version="1.0" encoding="utf-8"?>
<!-- Generator: Adobe Illustrator 25.3.1, SVG Export Plug-In . SVG Version: 6.00 Build 0)  -->
<svg version="1.1" id="Layer_1" xmlns="http://www.w3.org/2000/svg" xmlns:xlink="http://www.w3.org/1999/xlink" x="0px" y="0px"
	 viewBox="0 0 14.9 27.1" style="enable-background:new 0 0 14.9 27.1;" xml:space="preserve">
<style type="text/css">
	.st0{fill:#223B41;}
	.st1{fill:#FFFFFF;}
	.st2{fill:#4B62AB;}
	.st3{fill:#5D5BA5;}
	.st4{fill:#EA5529;}
	.st5{fill:#FFCF54;}
	.st6{fill:#018161;}
</style>
<g>
	<g>
		<path class="st0" d="M5.4,24.1V10.6h4.1V24L5.4,24.1L5.4,24.1z"/>
	</g>
	<path class="st1" d="M6.5,11.7l-3-3C3,8.2,3,7.3,3.6,6.8l3-3c0.5-0.5,1.4-0.5,1.9,0l3,3c0.5,0.5,0.5,1.4,0,1.9l-3,3
		C7.9,12.2,7.1,12.2,6.5,11.7z"/>
	<g>
		<path class="st2" d="M5.7,13.9L2,10.2C1.4,9.6,1.4,8.5,2,7.8l3.6-3.6c0.6-0.6,1.7-0.6,2.4,0l3.6,3.6c0.6,0.6,0.6,1.7,0,2.4L8,13.9
			C7.4,14.5,6.3,14.5,5.7,13.9z"/>
		<path class="st3" d="M3.3,7.8l3.6-3.6c0.6-0.6,1.7-0.6,2.4,0l3.6,3.6c0.6,0.6,0.6,1.7,0,2.4l-3.6,3.6c-0.6,0.6-1.7,0.6-2.4,0
			l-3.6-3.6C2.6,9.6,2.6,8.5,3.3,7.8z"/>
		<path class="st4" d="M2.7,7.1l3.6-3.6C7,2.8,8,2.8,8.7,3.5l3.6,3.6c0.6,0.6,0.6,1.7,0,2.4l-3.6,3.6c-0.6,0.6-1.7,0.6-2.4,0
			L2.7,9.5C2,8.9,2,7.8,2.7,7.1z"/>
		<path class="st5" d="M6.3,14.5l-3.6-3.6C2,10.2,2,9.1,2.7,8.5l3.6-3.6C7,4.2,8,4.2,8.7,4.8l3.6,3.6c0.6,0.6,0.6,1.7,0,2.4
			l-3.6,3.6C8,15.2,7,15.2,6.3,14.5z"/>
		<path class="st6" d="M6.3,14l-3.6-3.6C2,9.7,2,8.6,2.7,8l3.6-3.6C7,3.7,8,3.7,8.7,4.3L12.3,8c0.6,0.6,0.6,1.7,0,2.4L8.7,14
			C8,14.6,7,14.6,6.3,14z"/>
	</g>
</g>
</svg>
