<?xml version="1.0" encoding="utf-8"?>
<!-- Generator: Adobe Illustrator 25.3.1, SVG Export Plug-In . SVG Version: 6.00 Build 0)  -->
<svg version="1.1" id="Layer_1" xmlns="http://www.w3.org/2000/svg" xmlns:xlink="http://www.w3.org/1999/xlink" x="0px" y="0px"
	 viewBox="0 0 202.5 102.2" style="enable-background:new 0 0 202.5 102.2;" xml:space="preserve">
<style type="text/css">
	.st0{fill:#223B41;}
	.st1{fill:#FFFFFF;}
	.st2{fill:#018161;}
	.st3{fill:#4B62AB;}
	.st4{fill:#5D5BA5;}
	.st5{fill:#EA5529;}
	.st6{fill:#FFCF54;}
</style>
<g>
	<path class="st0" d="M0,40.2h35.9v11.2h-24v10.9h21.6v11.2H11.9v21H0V40.2z"/>
	<path class="st0" d="M66.4,91.3h-0.8c-1.2,1.3-2.6,2.4-4.1,3.3s-3.5,1.3-6,1.3c-1.9,0-3.6-0.3-5.3-0.9c-1.6-0.6-3.1-1.5-4.3-2.6
		s-2.2-2.5-2.9-4c-0.7-1.6-1-3.4-1-5.3s0.4-3.6,1.1-5.1c0.8-1.5,1.8-2.9,3.1-4s2.9-2,4.7-2.6s3.8-0.9,5.9-0.9c2.3,0,4.2,0.2,5.7,0.5
		s2.8,0.7,4,1.1v-1c0-1.6-0.7-3-2-4.1c-1.3-1.1-3.2-1.7-5.4-1.7c-3.3,0-6.1,1.3-8.5,4l-7.8-5.5c2.1-2.5,4.6-4.4,7.4-5.7
		c2.8-1.2,5.9-1.9,9.3-1.9c6.1,0,10.7,1.4,13.8,4.1c3.1,2.7,4.6,6.8,4.6,12.3v22H66.4V91.3z M66.4,80c-1.2-0.5-2.3-0.8-3.5-1.1
		c-1.1-0.3-2.3-0.4-3.5-0.4c-2,0-3.5,0.4-4.6,1.3c-1,0.8-1.5,1.9-1.5,3.2c0,1.3,0.5,2.4,1.4,3.2c1,0.8,2.2,1.2,3.8,1.2
		c1.3,0,2.4-0.2,3.4-0.6s1.8-1,2.5-1.7c0.7-0.7,1.2-1.5,1.5-2.4C66.3,81.7,66.4,80.9,66.4,80z"/>
	<path class="st0" d="M124.6,85.2c-1.8,3.3-4.2,6-7.3,7.9c-3,1.9-6.7,2.8-11,2.8c-2.9,0-5.6-0.5-8-1.5c-2.5-1-4.6-2.4-6.4-4.1
		s-3.2-3.8-4.2-6.3c-1-2.4-1.5-5.1-1.5-8s0.5-5.5,1.5-8c1-2.4,2.4-4.5,4.2-6.3c1.8-1.7,3.9-3.1,6.4-4.1s5.1-1.5,8-1.5
		c4.3,0,7.9,0.9,11,2.8c3.1,1.9,5.3,4.5,6.8,7.8l-10.5,4.4c-0.8-1.5-1.8-2.6-2.9-3.3c-1.1-0.7-2.6-1.1-4.4-1.1
		c-2.5,0-4.5,0.8-6.2,2.5c-1.6,1.6-2.5,3.9-2.5,6.7c0,2.8,0.8,5.1,2.5,6.7c1.6,1.6,3.7,2.5,6.2,2.5c1.8,0,3.3-0.4,4.6-1.2
		c1.3-0.8,2.3-1.9,3.2-3.5L124.6,85.2z"/>
	<path class="st0" d="M134.3,94.7V57.4h11.4v37.2L134.3,94.7L134.3,94.7z"/>
	<path class="st0" d="M161.2,67h-6.5v-9.6h6.5V46h11.4v11.4h9.2V67h-9.2v13c0,0.8,0.1,1.6,0.3,2.3c0.2,0.7,0.6,1.3,1.1,1.8
		c0.8,0.7,1.7,1,3,1c0.8,0,1.5-0.1,2.1-0.3c0.6-0.2,1-0.5,1.4-0.8l3.2,9.9c-1.3,0.6-2.7,1.1-4.3,1.4c-1.5,0.4-3.1,0.5-4.9,0.5
		c-4,0-7.2-1.2-9.5-3.6c-1.2-1.2-2.2-2.8-2.8-4.6c-0.7-1.8-1-3.9-1-6.1V67z"/>
</g>
<path class="st1" d="M137.3,60.4l-8.2-8.2c-1.5-1.5-1.5-3.9,0-5.4l8.2-8.2c1.5-1.5,3.9-1.5,5.4,0l8.2,8.2c1.5,1.5,1.5,3.9,0,5.4
	l-8.2,8.2C141.2,61.9,138.8,61.9,137.3,60.4z"/>
<path class="st2" d="M196.1,89.5c-0.1,0-0.3,0-0.4,0l0,0h-6v6.4l0,0l0,0c0,3.5,2.8,6.4,6.4,6.4c3.5,0,6.4-2.8,6.4-6.4
	C202.5,92.4,199.6,89.5,196.1,89.5z"/>
<g>
	<path class="st3" d="M134.9,66.4l-10.1-10.1c-1.8-1.8-1.8-4.8,0-6.6l10.1-10.1c1.8-1.8,4.8-1.8,6.6,0l10.1,10.1
		c1.8,1.8,1.8,4.8,0,6.6l-10.1,10.1C139.8,68.2,136.7,68.2,134.9,66.4z"/>
	<path class="st4" d="M128.3,49.7l10.1-10.1c1.8-1.8,4.8-1.8,6.6,0l10.1,10.1c1.8,1.8,1.8,4.8,0,6.6L145,66.4
		c-1.8,1.8-4.8,1.8-6.6,0l-10.1-10.1C126.5,54.5,126.5,51.5,128.3,49.7z"/>
	<path class="st5" d="M126.6,47.8l10.1-10.1c1.8-1.8,4.8-1.8,6.6,0l10.1,10.1c1.8,1.8,1.8,4.8,0,6.6l-10.1,10.1
		c-1.8,1.8-4.8,1.8-6.6,0l-10.1-10.1C124.8,52.8,124.8,49.7,126.6,47.8z"/>
	<path class="st6" d="M136.7,68.2l-10.1-10.1c-1.8-1.8-1.8-4.8,0-6.6l10.1-10.1c1.8-1.8,4.8-1.8,6.6,0l10.1,10.1
		c1.8,1.8,1.8,4.8,0,6.6l-10.1,10.1C141.5,70.1,138.5,70.1,136.7,68.2z"/>
	<path class="st2" d="M136.7,66.8l-10.1-10.1c-1.8-1.8-1.8-4.8,0-6.6L136.7,40c1.8-1.8,4.8-1.8,6.6,0l10.1,10.1
		c1.8,1.8,1.8,4.8,0,6.6l-10.1,10.1C141.5,68.6,138.5,68.6,136.7,66.8z"/>
</g>
</svg>
